<svg version="1.1" viewBox="0.0 0.0 466.0 466.0" fill="none" stroke="none" stroke-linecap="square" stroke-miterlimit="10" xmlns:xlink="http://www.w3.org/1999/xlink" xmlns="http://www.w3.org/2000/svg"><clipPath id="p.0"><path d="m0 0l466.0 0l0 466.0l-466.0 0l0 -466.0z" clip-rule="nonzero"/></clipPath><g clip-path="url(#p.0)"><path fill="#ffffff" d="m0 0l466.0 0l0 466.0l-466.0 0z" fill-rule="evenodd"/><path fill="#d9d9d9" d="m370.46637 108.5745l0 0c0 -8.3929825 6.8038635 -15.196846 15.196838 -15.196846l0 0c4.0304565 0 7.8958435 1.6010895 10.745789 4.45105c2.8499756 2.849968 4.4510803 6.7153473 4.4510803 10.745796l0 0c0 8.39299 -6.8038635 15.196854 -15.196869 15.196854l0 0c-8.392975 0 -15.196838 -6.8038635 -15.196838 -15.196854z" fill-rule="evenodd"/><path fill="#d9d9d9" d="m33.02017 108.5745l0 0c0 -8.3929825 6.8038597 -15.196846 15.19685 -15.196846l0 0c4.0304565 0 7.895832 1.6010895 10.745796 4.45105c2.8499641 2.849968 4.4510536 6.7153473 4.4510536 10.745796l0 0c0 8.39299 -6.8038597 15.196854 -15.19685 15.196854l0 0c-8.39299 0 -15.19685 -6.8038635 -15.19685 -15.196854z" fill-rule="evenodd"/><path fill="#ff9903" fill-opacity="0.5" d="m145.5018 108.5745l0 0c0 -8.3929825 6.8038635 -15.196846 15.196838 -15.196846l0 0c4.0304565 0 7.8958435 1.6010895 10.745804 4.45105c2.8499603 2.849968 4.45105 6.7153473 4.45105 10.745796l0 0c0 8.39299 -6.8038635 15.196854 -15.196854 15.196854l0 0c-8.392975 0 -15.196838 -6.8038635 -15.196838 -15.196854z" fill-rule="evenodd"/><path fill="#ff9903" fill-opacity="0.5" d="m201.74458 108.5745l0 0c0 -8.3929825 6.8038635 -15.196846 15.196838 -15.196846l0 0c4.0304565 0 7.8958435 1.6010895 10.745804 4.45105c2.8499603 2.849968 4.45105 6.7153473 4.45105 10.745796l0 0c0 8.39299 -6.8038635 15.196854 -15.196854 15.196854l0 0c-8.392975 0 -15.196838 -6.8038635 -15.196838 -15.196854z" fill-rule="evenodd"/><path fill="#ff9903" fill-opacity="0.5" d="m257.98474 108.5745l0 0c0 -8.3929825 6.8038635 -15.196846 15.196838 -15.196846l0 0c4.0304565 0 7.8958435 1.6010895 10.745789 4.45105c2.8499756 2.849968 4.4510803 6.7153473 4.4510803 10.745796l0 0c0 8.39299 -6.8038635 15.196854 -15.196869 15.196854l0 0c-8.392975 0 -15.196838 -6.8038635 -15.196838 -15.196854z" fill-rule="evenodd"/><path fill="#ff9903" fill-opacity="0.5" d="m314.2262 108.5745l0 0c0 -8.3929825 6.8038635 -15.196846 15.196869 -15.196846l0 0c4.0304565 0 7.895813 1.6010895 10.745789 4.45105c2.849945 2.849968 4.45105 6.7153473 4.45105 10.745796l0 0c0 8.39299 -6.8038635 15.196854 -15.196838 15.196854l0 0c-8.393005 0 -15.196869 -6.8038635 -15.196869 -15.196854z" fill-rule="evenodd"/><path fill="#ff9903" fill-opacity="0.5" d="m89.261635 108.5745l0 0c0 -8.3929825 6.8038635 -15.196846 15.196854 -15.196846l0 0c4.0304565 0 7.895836 1.6010895 10.745796 4.45105c2.8499603 2.849968 4.4510574 6.7153473 4.4510574 10.745796l0 0c0 8.39299 -6.8038635 15.196854 -15.196854 15.196854l0 0c-8.39299 0 -15.196854 -6.8038635 -15.196854 -15.196854z" fill-rule="evenodd"/><path fill="#d9d9d9" d="m370.469 56.220173l0 0c0 -8.39299 6.8038635 -15.19685 15.196838 -15.19685l0 0c4.0304565 0 7.8958435 1.6010933 10.745789 4.4510536c2.8499756 2.8499641 4.4510803 6.7153397 4.4510803 10.745796l0 0c0 8.392986 -6.8038635 15.19685 -15.196869 15.19685l0 0c-8.392975 0 -15.196838 -6.8038635 -15.196838 -15.19685z" fill-rule="evenodd"/><path fill="#ff9903" fill-opacity="0.5" d="m145.50443 56.220173l0 0c0 -8.39299 6.8038635 -15.19685 15.196838 -15.19685l0 0c4.0304565 0 7.8958435 1.6010933 10.745804 4.4510536c2.8499603 2.8499641 4.45105 6.7153397 4.45105 10.745796l0 0c0 8.392986 -6.8038635 15.19685 -15.196854 15.19685l0 0c-8.392975 0 -15.196838 -6.8038635 -15.196838 -15.19685z" fill-rule="evenodd"/><path fill="#ff9903" fill-opacity="0.5" d="m201.74721 56.220173l0 0c0 -8.39299 6.8038635 -15.19685 15.196838 -15.19685l0 0c4.0304565 0 7.8958435 1.6010933 10.745804 4.4510536c2.8499603 2.8499641 4.45105 6.7153397 4.45105 10.745796l0 0c0 8.392986 -6.8038635 15.19685 -15.196854 15.19685l0 0c-8.392975 0 -15.196838 -6.8038635 -15.196838 -15.19685z" fill-rule="evenodd"/><path fill="#ff9903" fill-opacity="0.5" d="m314.22882 56.220173l0 0c0 -8.39299 6.8038635 -15.19685 15.196869 -15.19685l0 0c4.0304565 0 7.895813 1.6010933 10.745789 4.4510536c2.849945 2.8499641 4.45105 6.7153397 4.45105 10.745796l0 0c0 8.392986 -6.8038635 15.19685 -15.196838 15.19685l0 0c-8.393005 0 -15.196869 -6.8038635 -15.196869 -15.19685z" fill-rule="evenodd"/><path fill="#ff9903" fill-opacity="0.5" d="m257.98737 56.220173l0 0c0 -8.39299 6.8038635 -15.19685 15.196838 -15.19685l0 0c4.0304565 0 7.8958435 1.6010933 10.745789 4.4510536c2.8499756 2.8499641 4.4510803 6.7153397 4.4510803 10.745796l0 0c0 8.392986 -6.8038635 15.19685 -15.196869 15.19685l0 0c-8.392975 0 -15.196838 -6.8038635 -15.196838 -15.19685z" fill-rule="evenodd"/><path fill="#d9d9d9" d="m370.469 160.92883l0 0c0 -8.39299 6.8038635 -15.196854 15.196838 -15.196854l0 0c4.0304565 0 7.8958435 1.6010895 10.745789 4.451065c2.8499756 2.8499603 4.4510803 6.715332 4.4510803 10.745789l0 0c0 8.39299 -6.8038635 15.196854 -15.196869 15.196854l0 0c-8.392975 0 -15.196838 -6.8038635 -15.196838 -15.196854z" fill-rule="evenodd"/><path fill="#d9d9d9" d="m33.022793 160.92883l0 0c0 -8.39299 6.8038597 -15.196854 15.19685 -15.196854l0 0c4.0304565 0 7.895836 1.6010895 10.745796 4.451065c2.8499641 2.8499603 4.4510536 6.715332 4.4510536 10.745789l0 0c0 8.39299 -6.8038597 15.196854 -15.19685 15.196854l0 0c-8.39299 0 -15.19685 -6.8038635 -15.19685 -15.196854z" fill-rule="evenodd"/><path fill="#ff9903" fill-opacity="0.5" d="m145.50443 160.92883l0 0c0 -8.39299 6.8038635 -15.196854 15.196838 -15.196854l0 0c4.0304565 0 7.8958435 1.6010895 10.745804 4.451065c2.8499603 2.8499603 4.45105 6.715332 4.45105 10.745789l0 0c0 8.39299 -6.8038635 15.196854 -15.196854 15.196854l0 0c-8.392975 0 -15.196838 -6.8038635 -15.196838 -15.196854z" fill-rule="evenodd"/><path fill="#ff9903" fill-opacity="0.5" d="m201.74721 160.92883l0 0c0 -8.39299 6.8038635 -15.196854 15.196838 -15.196854l0 0c4.0304565 0 7.8958435 1.6010895 10.745804 4.451065c2.8499603 2.8499603 4.45105 6.715332 4.45105 10.745789l0 0c0 8.39299 -6.8038635 15.196854 -15.196854 15.196854l0 0c-8.392975 0 -15.196838 -6.8038635 -15.196838 -15.196854z" fill-rule="evenodd"/><path fill="#ff9903" fill-opacity="0.5" d="m257.98737 160.92883l0 0c0 -8.39299 6.8038635 -15.196854 15.196838 -15.196854l0 0c4.0304565 0 7.8958435 1.6010895 10.745789 4.451065c2.8499756 2.8499603 4.4510803 6.715332 4.4510803 10.745789l0 0c0 8.39299 -6.8038635 15.196854 -15.196869 15.196854l0 0c-8.392975 0 -15.196838 -6.8038635 -15.196838 -15.196854z" fill-rule="evenodd"/><path fill="#ff9903" fill-opacity="0.5" d="m314.22882 160.92883l0 0c0 -8.39299 6.8038635 -15.196854 15.196869 -15.196854l0 0c4.0304565 0 7.895813 1.6010895 10.745789 4.451065c2.849945 2.8499603 4.45105 6.715332 4.45105 10.745789l0 0c0 8.39299 -6.8038635 15.196854 -15.196838 15.196854l0 0c-8.393005 0 -15.196869 -6.8038635 -15.196869 -15.196854z" fill-rule="evenodd"/><path fill="#ff9903" fill-opacity="0.5" d="m89.26426 160.92883l0 0c0 -8.39299 6.8038635 -15.196854 15.196854 -15.196854l0 0c4.0304565 0 7.895836 1.6010895 10.745796 4.451065c2.8499603 2.8499603 4.4510574 6.715332 4.4510574 10.745789l0 0c0 8.39299 -6.8038635 15.196854 -15.196854 15.196854l0 0c-8.39299 0 -15.196854 -6.8038635 -15.196854 -15.196854z" fill-rule="evenodd"/><path fill="#d9d9d9" d="m370.46768 213.28317l0 0c0 -8.39299 6.8038635 -15.196854 15.196838 -15.196854l0 0c4.0304565 0 7.8958435 1.6010895 10.745789 4.45105c2.8499756 2.8499603 4.4510803 6.7153473 4.4510803 10.745804l0 0c0 8.392975 -6.8038635 15.196838 -15.196869 15.196838l0 0c-8.392975 0 -15.196838 -6.8038635 -15.196838 -15.196838z" fill-rule="evenodd"/><path fill="#d9d9d9" d="m33.02148 213.28317l0 0c0 -8.39299 6.8038597 -15.196854 15.19685 -15.196854l0 0c4.0304565 0 7.895836 1.6010895 10.745796 4.45105c2.8499641 2.8499603 4.4510536 6.7153473 4.4510536 10.745804l0 0c0 8.392975 -6.8038597 15.196838 -15.19685 15.196838l0 0c-8.39299 0 -15.19685 -6.8038635 -15.19685 -15.196838z" fill-rule="evenodd"/><path fill="#ff9903" fill-opacity="0.5" d="m145.50311 213.28317l0 0c0 -8.39299 6.8038635 -15.196854 15.196838 -15.196854l0 0c4.0304565 0 7.8958435 1.6010895 10.745804 4.45105c2.8499603 2.8499603 4.45105 6.7153473 4.45105 10.745804l0 0c0 8.392975 -6.8038635 15.196838 -15.196854 15.196838l0 0c-8.392975 0 -15.196838 -6.8038635 -15.196838 -15.196838z" fill-rule="evenodd"/><path fill="#ff9903" fill-opacity="0.5" d="m201.7459 213.28317l0 0c0 -8.39299 6.8038635 -15.196854 15.196838 -15.196854l0 0c4.0304565 0 7.8958435 1.6010895 10.745804 4.45105c2.8499603 2.8499603 4.45105 6.7153473 4.45105 10.745804l0 0c0 8.392975 -6.8038635 15.196838 -15.196854 15.196838l0 0c-8.392975 0 -15.196838 -6.8038635 -15.196838 -15.196838z" fill-rule="evenodd"/><path fill="#ff9903" fill-opacity="0.5" d="m257.98605 213.28317l0 0c0 -8.39299 6.8038635 -15.196854 15.196838 -15.196854l0 0c4.0304565 0 7.8958435 1.6010895 10.745789 4.45105c2.8499756 2.8499603 4.4510803 6.7153473 4.4510803 10.745804l0 0c0 8.392975 -6.8038635 15.196838 -15.196869 15.196838l0 0c-8.392975 0 -15.196838 -6.8038635 -15.196838 -15.196838z" fill-rule="evenodd"/><path fill="#ff9903" fill-opacity="0.5" d="m314.2275 213.28317l0 0c0 -8.39299 6.8038635 -15.196854 15.196869 -15.196854l0 0c4.0304565 0 7.895813 1.6010895 10.745789 4.45105c2.849945 2.8499603 4.45105 6.7153473 4.45105 10.745804l0 0c0 8.392975 -6.8038635 15.196838 -15.196838 15.196838l0 0c-8.393005 0 -15.196869 -6.8038635 -15.196869 -15.196838z" fill-rule="evenodd"/><path fill="#ff9903" fill-opacity="0.5" d="m89.26295 213.28317l0 0c0 -8.39299 6.8038635 -15.196854 15.196854 -15.196854l0 0c4.0304565 0 7.895836 1.6010895 10.745796 4.45105c2.8499603 2.8499603 4.4510574 6.7153473 4.4510574 10.745804l0 0c0 8.392975 -6.8038635 15.196838 -15.196854 15.196838l0 0c-8.39299 0 -15.196854 -6.8038635 -15.196854 -15.196838z" fill-rule="evenodd"/><path fill="#d9d9d9" d="m33.02148 265.63748l0 0c0 -8.392975 6.8038597 -15.196838 15.19685 -15.196838l0 0c4.0304565 0 7.895836 1.6010895 10.745796 4.45105c2.8499641 2.8499756 4.4510536 6.7153625 4.4510536 10.745789l0 0c0 8.393005 -6.8038597 15.196869 -15.19685 15.196869l0 0c-8.39299 0 -15.19685 -6.8038635 -15.19685 -15.196869z" fill-rule="evenodd"/><path fill="#ff9903" fill-opacity="0.5" d="m145.50311 265.63748l0 0c0 -8.392975 6.8038635 -15.196838 15.196838 -15.196838l0 0c4.0304565 0 7.8958435 1.6010895 10.745804 4.45105c2.8499603 2.8499756 4.45105 6.7153625 4.45105 10.745789l0 0c0 8.393005 -6.8038635 15.196869 -15.196854 15.196869l0 0c-8.392975 0 -15.196838 -6.8038635 -15.196838 -15.196869z" fill-rule="evenodd"/><path fill="#ff9903" fill-opacity="0.5" d="m201.7459 265.63748l0 0c0 -8.392975 6.8038635 -15.196838 15.196838 -15.196838l0 0c4.0304565 0 7.8958435 1.6010895 10.745804 4.45105c2.8499603 2.8499756 4.45105 6.7153625 4.45105 10.745789l0 0c0 8.393005 -6.8038635 15.196869 -15.196854 15.196869l0 0c-8.392975 0 -15.196838 -6.8038635 -15.196838 -15.196869z" fill-rule="evenodd"/><path fill="#ff9903" fill-opacity="0.5" d="m89.26295 265.63748l0 0c0 -8.392975 6.8038635 -15.196838 15.196854 -15.196838l0 0c4.0304565 0 7.895836 1.6010895 10.745796 4.45105c2.8499603 2.8499756 4.4510574 6.7153625 4.4510574 10.745789l0 0c0 8.393005 -6.8038635 15.196869 -15.196854 15.196869l0 0c-8.39299 0 -15.196854 -6.8038635 -15.196854 -15.196869z" fill-rule="evenodd"/><path fill="#ff9903" fill-opacity="0.5" d="m198.37958 317.25986l0 0c0 -53.01935 42.980667 -96.000015 96.0 -96.000015l0 0c25.460785 0 49.878754 10.114258 67.88226 28.117752c18.003479 18.003479 28.117737 42.42148 28.117737 67.88226l0 0c0 53.019318 -42.98065 96.0 -96.0 96.0l0 0c-53.019333 0 -96.0 -42.980682 -96.0 -96.0z" fill-rule="evenodd"/><path stroke="#ff9900" stroke-width="12.0" stroke-linejoin="round" stroke-linecap="butt" d="m198.37958 317.25986l0 0c0 -53.01935 42.980667 -96.000015 96.0 -96.000015l0 0c25.460785 0 49.878754 10.114258 67.88226 28.117752c18.003479 18.003479 28.117737 42.42148 28.117737 67.88226l0 0c0 53.019318 -42.98065 96.0 -96.0 96.0l0 0c-53.019333 0 -96.0 -42.980682 -96.0 -96.0z" fill-rule="evenodd"/><path fill="#ff9903" d="m359.7192 380.07556l0 0c2.6875 -2.6875 7.0464783 -2.6891785 9.736023 -0.0037841797l31.016113 30.96817c1.291565 1.2895813 2.0175781 3.039032 2.01828 4.8634644c7.019043E-4 1.8244629 -0.723938 3.574463 -2.0145264 4.8650513l0 0l0 0c-2.6875 2.6875 -7.0464783 2.6891785 -9.736023 0.003753662l-31.016113 -30.96814c-2.6895752 -2.6854248 -2.6912537 -7.041046 -0.003753662 -9.728516z" fill-rule="evenodd"/><path stroke="#ff9903" stroke-width="1.0" stroke-linejoin="round" stroke-linecap="butt" d="m359.7192 380.07556l0 0c2.6875 -2.6875 7.0464783 -2.6891785 9.736023 -0.0037841797l31.016113 30.96817c1.291565 1.2895813 2.0175781 3.039032 2.01828 4.8634644c7.019043E-4 1.8244629 -0.723938 3.574463 -2.0145264 4.8650513l0 0l0 0c-2.6875 2.6875 -7.0464783 2.6891785 -9.736023 0.003753662l-31.016113 -30.96814c-2.6895752 -2.6854248 -2.6912537 -7.041046 -0.003753662 -9.728516z" fill-rule="evenodd"/><path fill="#ffffff" d="m226.29498 317.063l0 0c0 -2.65271 2.1504364 -4.803131 4.8031464 -4.803131l62.393692 0c1.2738647 0 2.495575 0.5060425 3.3963318 1.4067993c0.90078735 0.90075684 1.4068298 2.122467 1.4068298 3.3963318l0 0l0 0c0 2.65271 -2.1504517 4.8031616 -4.8031616 4.8031616l-62.393692 0l0 0c-2.65271 0 -4.8031464 -2.1504517 -4.8031464 -4.8031616z" fill-rule="evenodd"/><path fill="#ffffff" d="m295.52872 315.24387l0 0c2.226532 1.4350586 2.8658752 4.4019165 1.428009 6.626648l-23.454468 36.289978c-0.6904602 1.0683594 -1.7774353 1.8192139 -3.0217285 2.0873413c-1.2442932 0.26815796 -2.5440063 0.03161621 -3.6132202 -0.6575012l0 0l0 0c-2.226532 -1.4350891 -2.8658752 -4.401947 -1.4280396 -6.6266785l23.454468 -36.289978c1.4378662 -2.2247314 4.4084473 -2.8648987 6.6349792 -1.4298096z" fill-rule="evenodd"/><path fill="#ff9903" d="m227.8688 380.07556l0 0c-2.6875 -2.6875 -7.0464783 -2.6891785 -9.736038 -0.0037841797l-31.016098 30.96817c-1.2915802 1.2895813 -2.0175781 3.039032 -2.0182953 4.8634644c-7.019043E-4 1.8244629 0.72395325 3.574463 2.0145264 4.8650513l0 0l0 0c2.6875 2.6875 7.0464783 2.6891785 9.736053 0.003753662l31.016098 -30.96814c2.68956 -2.6854248 2.6912537 -7.041046 0.003753662 -9.728516z" fill-rule="evenodd"/><path stroke="#ff9903" stroke-width="1.0" stroke-linejoin="round" stroke-linecap="butt" d="m227.8688 380.07556l0 0c-2.6875 -2.6875 -7.0464783 -2.6891785 -9.736038 -0.0037841797l-31.016098 30.96817c-1.2915802 1.2895813 -2.0175781 3.039032 -2.0182953 4.8634644c-7.019043E-4 1.8244629 0.72395325 3.574463 2.0145264 4.8650513l0 0l0 0c2.6875 2.6875 7.0464783 2.6891785 9.736053 0.003753662l31.016098 -30.96814c2.68956 -2.6854248 2.6912537 -7.041046 0.003753662 -9.728516z" fill-rule="evenodd"/><path fill="#ff9903" d="m259.35077 202.39896l0 0c-13.96196 -13.961975 -34.34784 -19.363495 -53.431793 -14.157501c-19.083954 5.206009 -33.945633 20.222885 -38.95276 39.359528c-5.007126 19.136642 0.6065216 39.46466 14.71347 53.28012l38.631714 -39.44278z" fill-rule="evenodd"/><path fill="#ff9903" d="m330.91245 202.39896l0 0c13.961975 -13.961975 34.34787 -19.363495 53.431824 -14.157501c19.083954 5.206009 33.945618 20.222885 38.95273 39.359528c5.007141 19.136642 -0.60650635 39.46466 -14.71347 53.28012l-38.631714 -39.44278z" fill-rule="evenodd"/><path fill="#ffffff" d="m290.53705 233.8722l0 0c0 -2.1221619 1.7203674 -3.842514 3.8425293 -3.842514l0 0c1.019104 0 1.99646 0.40483093 2.7170715 1.1254425c0.7206116 0.7206116 1.1254578 1.6979828 1.1254578 2.7170715l0 0c0 2.1221771 -1.7203674 3.8425293 -3.8425293 3.8425293l0 0c-2.1221619 0 -3.8425293 -1.7203522 -3.8425293 -3.8425293z" fill-rule="evenodd"/><path fill="#ffffff" d="m372.4573 318.01794l0 0c0 -2.1221619 1.7203369 -3.8425293 3.8424988 -3.8425293l0 0c1.019104 0 1.99646 0.4048462 2.7170715 1.1254578c0.7206116 0.7206116 1.1254578 1.6979675 1.1254578 2.7170715l0 0c0 2.1221619 -1.7203674 3.8425293 -3.8425293 3.8425293l0 0c-2.1221619 0 -3.8424988 -1.7203674 -3.8424988 -3.8425293z" fill-rule="evenodd"/><path fill="#ffffff" d="m290.99002 400.255l0 0c0 -2.1221619 1.7203674 -3.8424988 3.8425293 -3.8424988l0 0c1.019104 0 1.99646 0.40481567 2.7170715 1.1254272c0.7206116 0.7206116 1.1254272 1.697998 1.1254272 2.7170715l0 0c0 2.1221924 -1.7203369 3.8425293 -3.8424988 3.8425293l0 0c-2.1221619 0 -3.8425293 -1.7203369 -3.8425293 -3.8425293z" fill-rule="evenodd"/><path fill="#ffffff" d="m208.08167 318.00085l0 0c0 -2.1221924 1.7203522 -3.8425293 3.842514 -3.8425293l0 0c1.019104 0 1.99646 0.40481567 2.7170715 1.1254578c0.72062683 0.7206116 1.1254578 1.6979675 1.1254578 2.7170715l0 0c0 2.1221619 -1.7203522 3.8424988 -3.8425293 3.8424988l0 0c-2.1221619 0 -3.842514 -1.7203369 -3.842514 -3.8424988z" fill-rule="evenodd"/><path fill="#000000" fill-opacity="0.0" d="m33.025517 302.79498l142.86615 0l0 89.07086l-142.86615 0z" fill-rule="evenodd"/><path fill="#ff9903" d="m60.525517 374.0006q-5.640625 0 -9.796875 -1.84375q-4.15625 -1.859375 -6.71875 -5.0625l5.5625 -6.140625q2.4375 2.6875 5.34375 3.96875q2.921875 1.265625 5.921875 1.265625q3.4531212 0 5.249996 -1.53125q1.796875 -1.53125 1.796875 -4.40625q0 -2.375 -1.375 -3.59375q-1.375 -1.21875 -4.640621 -1.71875l-4.671875 -0.78125q-6.015625 -1.015625 -8.703125 -4.4375q-2.6875 -3.421875 -2.6875 -8.359375q0 -6.453125 4.21875 -10.0q4.21875 -3.5625 11.84375 -3.5625q5.187496 0 9.015621 1.609375q3.84375 1.59375 6.21875 4.34375l-5.453125 6.078125q-1.78125 -1.984375 -4.21875 -3.09375q-2.4375 -1.125 -5.499996 -1.125q-6.46875 0 -6.46875 5.3125q0 2.296875 1.4375 3.453125q1.4375 1.140625 4.703125 1.71875l4.671871 0.84375q5.453125 0.953125 8.390625 4.09375q2.9375 3.125 2.9375 8.4375q0 3.140625 -1.09375 5.796875q-1.078125 2.65625 -3.25 4.609375q-2.171875 1.953125 -5.34375 3.046875q-3.171875 1.078125 -7.390621 1.078125zm25.02493 -0.765625l0 -44.671875l28.53125 0l0 7.875l-18.9375 0l0 10.234375l18.3125 0l0 7.875l-18.3125 0l0 10.8125l18.9375 0l0 7.875l-28.53125 0zm38.134308 0l0 -44.671875l17.28125 0q3.265625 0 5.828125 1.0q2.5625 0.984375 4.3125 2.84375q1.765625 1.859375 2.65625 4.484375q0.90625 2.609375 0.90625 5.875q0 3.265625 -0.90625 5.890625q-0.890625 2.625 -2.65625 4.484375q-1.75 1.859375 -4.3125 2.859375q-2.5625 0.984375 -5.828125 0.984375l-7.609375 0l0 16.25l-9.671875 0zm9.671875 -24.0l5.1875 0q3.390625 0 4.703125 -1.28125q1.3125 -1.28125 1.3125 -4.21875l0 -1.921875q0 -2.953125 -1.3125 -4.21875q-1.3125 -1.28125 -4.703125 -1.28125l-5.1875 0l0 12.921875z" fill-rule="nonzero"/><path fill="#000000" fill-opacity="0.0" d="m11.331042 103.79819l0 0c0 -51.03449 41.371628 -92.40611 92.40612 -92.40611l256.79407 0l0 0c24.50763 0 48.011475 9.735618 65.341 27.065128c17.329498 17.329506 27.065125 40.833366 27.065125 65.34099l0 256.95154c0 51.034485 -41.371643 92.40613 -92.40613 92.40613l-256.79407 0c-51.03449 0 -92.40612 -41.371643 -92.40612 -92.40613z" fill-rule="evenodd"/><path stroke="#ff9903" stroke-width="24.0" stroke-linejoin="round" stroke-linecap="butt" d="m11.331042 103.79819l0 0c0 -51.03449 41.371628 -92.40611 92.40612 -92.40611l256.79407 0l0 0c24.50763 0 48.011475 9.735618 65.341 27.065128c17.329498 17.329506 27.065125 40.833366 27.065125 65.34099l0 256.95154c0 51.034485 -41.371643 92.40613 -92.40613 92.40613l-256.79407 0c-51.03449 0 -92.40612 -41.371643 -92.40612 -92.40613z" fill-rule="evenodd"/></g></svg>
